<svg width="64" height="64" viewBox="0 0 64 64" fill="none" xmlns="http://www.w3.org/2000/svg">
<g clip-path="url(#clip0_4372_12949)">
<path d="M5.81836 48.0521L5.8201 59.9276C5.8201 62.1769 7.64352 63.9998 9.89283 63.9998H21.3994C22.5881 63.9998 23.718 63.4802 24.4918 62.5778L57.2016 24.4164C57.8341 23.678 58.182 22.7378 58.182 21.7656V9.89011C58.182 7.6408 56.3586 5.81738 54.1093 5.81738H42.6009C41.4122 5.81738 40.2823 6.33695 39.5085 7.23935L6.79872 45.4008C6.1657 46.1391 5.81836 47.0793 5.81836 48.0521Z" fill="#00D886"/>
<path d="M5.81836 49.4806V59.9271C5.81836 62.1764 7.64178 63.9999 9.89109 63.9999H22.9837C23.1763 63.9999 23.3689 63.9859 23.5597 63.9591L60.5034 58.682C62.5101 58.3952 64.0002 56.6771 64.0002 54.65V38.977C64.0002 36.7271 62.1762 34.9037 59.9263 34.9043L41.3878 34.909C40.9503 34.909 40.5157 34.9794 40.1008 35.1178L8.60294 45.6173C6.9401 46.1718 5.81836 47.7282 5.81836 49.4812V49.4806Z" fill="url(#paint0_linear_4372_12949)"/>
<path d="M0 4.07273V38.041C0 39.6701 0.971054 41.1427 2.46807 41.7844L39.9587 57.8525C40.4654 58.0695 41.0118 58.1818 41.5633 58.1818H59.9273C62.1766 58.1818 64 56.3584 64 54.1091V36.1431C64 35.3385 63.7614 34.5518 63.3146 33.8822L41.9113 1.81353C41.1561 0.681309 39.8854 0.00174545 38.5239 0.00174545L4.07273 0C1.82342 0 0 1.82342 0 4.07273Z" fill="url(#paint1_linear_4372_12949)"/>
<path d="M52 12H12V52H52V12Z" fill="black"/>
<path d="M33.333 44H17.333V46.6669H33.333V44Z" fill="white"/>
<path d="M52 12H12V52H52V12Z" fill="black"/>
<path d="M43.5721 32L40.0008 25.9915C40.239 25.9157 40.4921 25.8606 40.7114 25.759C41.5259 25.3573 42.1509 24.8079 42.5866 24.0985C43.0291 23.3885 43.2507 22.5717 43.2507 21.6338C43.2507 20.6959 43.0326 19.9061 42.5969 19.2098C42.1682 18.5136 41.554 17.9643 40.7538 17.5757C39.9537 17.1871 39.029 17 37.9786 17H31.5391V32H34.4641V26.3348H36.9885L40.2177 32H43.5716H43.5721ZM34.4652 19.4377H37.7869C38.28 19.4377 38.7082 19.5313 39.0726 19.7058C39.444 19.8929 39.7299 20.1477 39.9296 20.483C40.1294 20.8176 40.2298 21.2062 40.2298 21.6613C40.2298 22.1165 40.1299 22.5051 39.9296 22.8535C39.7293 23.1882 39.444 23.443 39.0726 23.6301C38.7082 23.8178 38.28 23.8982 37.7869 23.8982H34.4652V19.4383V19.4377Z" fill="white"/>
<path d="M20.0252 26.3348H22.5496L25.7789 32H29.1327L25.5613 25.9915C25.7995 25.9157 26.0527 25.8606 26.2719 25.759C27.0864 25.3573 27.7109 24.8079 28.1471 24.0985C28.5897 23.3885 28.8112 22.5717 28.8112 21.6338C28.8112 20.6959 28.5931 19.9061 28.1575 19.2098C27.7287 18.5136 27.1145 17.9643 26.3144 17.5757C25.5143 17.1871 24.5896 17 23.5392 17H17.0996V32H20.0246V26.3348H20.0252ZM20.0252 19.4377H23.3469C23.8399 19.4377 24.2681 19.5313 24.6326 19.7058C25.004 19.8929 25.2898 20.1477 25.4901 20.483C25.6899 20.8176 25.7903 21.2062 25.7903 21.6613C25.7903 22.1165 25.6905 22.5051 25.4901 22.8535C25.2898 23.1882 25.0046 23.443 24.6326 23.6301C24.2681 23.8178 23.8399 23.8982 23.3469 23.8982H20.0252V19.4383V19.4377Z" fill="white"/>
<path d="M33 44H17V47H33V44Z" fill="white"/>
</g>
<defs>
<linearGradient id="paint0_linear_4372_12949" x1="7.62141" y1="64.7172" x2="61.2476" y2="39.8544" gradientUnits="userSpaceOnUse">
<stop offset="0.08" stop-color="#00D886"/>
<stop offset="0.46" stop-color="#FFAB00"/>
</linearGradient>
<linearGradient id="paint1_linear_4372_12949" x1="60.0186" y1="59.7777" x2="1.31316" y2="1.07287" gradientUnits="userSpaceOnUse">
<stop offset="0.19" stop-color="#FFAB00"/>
<stop offset="0.83" stop-color="#FF004C"/>
</linearGradient>
<clipPath id="clip0_4372_12949">
<rect width="64" height="64" fill="white"/>
</clipPath>
</defs>
</svg>
